<?xml version="1.0" standalone="no"?>
<!DOCTYPE svg PUBLIC "-//W3C//DTD SVG 20010904//EN"
 "http://www.w3.org/TR/2001/REC-SVG-20010904/DTD/svg10.dtd">
<svg version="1.0" xmlns="http://www.w3.org/2000/svg"
 width="500.000000pt" height="500.000000pt" viewBox="0 0 500.000000 500.000000"
 preserveAspectRatio="xMidYMid meet">
<metadata>
Created by potrace 1.14, written by Peter Selinger 2001-2017
</metadata>
<g transform="translate(0.000000,500.000000) scale(0.100000,-0.100000)"
fill="#000000" stroke="none">
<path d="M1847 4310 c-171 -27 -305 -98 -430 -229 -200 -210 -254 -532 -133
-797 l24 -52 -177 -4 c-165 -3 -180 -5 -233 -30 -71 -33 -146 -102 -180 -165
-42 -78 -50 -146 -46 -393 5 -280 13 -308 119 -412 l69 -66 0 -601 c0 -581 1
-602 21 -655 39 -105 144 -196 258 -222 83 -20 2629 -20 2712 0 114 26 217
115 261 224 l23 57 2 602 1 601 64 64 c102 100 111 131 116 408 4 247 -4 315
-46 393 -34 63 -109 132 -180 165 -53 25 -68 27 -233 30 l-177 4 24 52 c188
411 -49 897 -492 1011 -137 36 -331 20 -463 -38 -66 -29 -170 -98 -210 -141
-19 -20 -40 -36 -46 -36 -6 0 -27 16 -46 36 -42 45 -146 114 -214 143 -114 47
-274 69 -388 51z m267 -399 c72 -35 131 -95 168 -169 22 -44 23 -60 26 -279
l3 -233 -233 0 c-224 0 -235 1 -284 24 -102 48 -172 135 -201 251 -45 182 64
370 250 431 26 9 73 13 124 11 67 -3 92 -9 147 -36z m1076 7 c108 -49 178
-135 207 -253 39 -159 -41 -331 -189 -404 l-61 -31 -234 0 -233 0 0 218 c0
246 5 274 68 357 43 58 114 109 181 130 71 23 193 15 261 -17z m-1187 -1065
l307 -6 0 -174 0 -173 -543 0 c-299 0 -585 -3 -635 -6 l-92 -7 0 187 0 186
328 0 c180 0 465 -3 635 -7z m1947 -179 l0 -187 -92 7 c-50 3 -336 6 -635 6
l-543 0 0 175 0 175 208 3 c114 1 399 3 635 5 l427 2 0 -186z m-1640 -1089 l0
-545 -545 0 -545 0 0 545 0 545 545 0 545 0 0 -545z m1460 0 l0 -545 -545 0
-545 0 0 545 0 545 545 0 545 0 0 -545z"/>
</g>
</svg>
